<mxfile host="app.diagrams.net" modified="2024-05-11T14:59:43.574Z" agent="Mozilla/5.0 (Windows NT 10.0; Win64; x64) AppleWebKit/537.36 (KHTML, like Gecko) Chrome/124.0.0.0 Safari/537.36" etag="EcntZ_nHMJnrpUPxlxrp" version="24.4.0" type="device">
  <diagram name="Page-1" id="A4knrDo9D2EkvppF6q97">
    <mxGraphModel dx="1221" dy="652" grid="1" gridSize="10" guides="1" tooltips="1" connect="1" arrows="1" fold="1" page="1" pageScale="1" pageWidth="850" pageHeight="1100" math="0" shadow="0">
      <root>
        <mxCell id="0" />
        <mxCell id="1" parent="0" />
        <mxCell id="_BxMAFI9N5B8a2bIf4MY-48" style="edgeStyle=orthogonalEdgeStyle;rounded=0;orthogonalLoop=1;jettySize=auto;html=1;exitX=0.994;exitY=0.212;exitDx=0;exitDy=0;entryX=0;entryY=0.5;entryDx=0;entryDy=0;exitPerimeter=0;" parent="1" source="_BxMAFI9N5B8a2bIf4MY-47" target="_BxMAFI9N5B8a2bIf4MY-3" edge="1">
          <mxGeometry relative="1" as="geometry" />
        </mxCell>
        <mxCell id="_BxMAFI9N5B8a2bIf4MY-49" style="edgeStyle=orthogonalEdgeStyle;rounded=0;orthogonalLoop=1;jettySize=auto;html=1;exitX=0.997;exitY=0.792;exitDx=0;exitDy=0;entryX=0;entryY=0.5;entryDx=0;entryDy=0;exitPerimeter=0;" parent="1" source="_BxMAFI9N5B8a2bIf4MY-47" target="_BxMAFI9N5B8a2bIf4MY-6" edge="1">
          <mxGeometry relative="1" as="geometry" />
        </mxCell>
        <mxCell id="_BxMAFI9N5B8a2bIf4MY-47" value="" style="rounded=1;whiteSpace=wrap;html=1;" parent="1" vertex="1">
          <mxGeometry x="140" y="220" width="280" height="240" as="geometry" />
        </mxCell>
        <mxCell id="_BxMAFI9N5B8a2bIf4MY-37" style="edgeStyle=orthogonalEdgeStyle;rounded=0;orthogonalLoop=1;jettySize=auto;html=1;exitX=1;exitY=0.5;exitDx=0;exitDy=0;entryX=0;entryY=0.5;entryDx=0;entryDy=0;" parent="1" source="_BxMAFI9N5B8a2bIf4MY-1" target="_BxMAFI9N5B8a2bIf4MY-2" edge="1">
          <mxGeometry relative="1" as="geometry" />
        </mxCell>
        <mxCell id="_BxMAFI9N5B8a2bIf4MY-1" value="&lt;div&gt;&lt;font style=&quot;font-size: 16px;&quot; face=&quot;Lucida Console&quot;&gt;读取文件的类&lt;/font&gt;&lt;/div&gt;&lt;font style=&quot;font-size: 16px;&quot; face=&quot;Lucida Console&quot;&gt;_shp.BinaryReader&lt;/font&gt;" style="rounded=1;whiteSpace=wrap;html=1;" parent="1" vertex="1">
          <mxGeometry x="160" y="80" width="240" height="80" as="geometry" />
        </mxCell>
        <mxCell id="_BxMAFI9N5B8a2bIf4MY-52" style="edgeStyle=orthogonalEdgeStyle;rounded=0;orthogonalLoop=1;jettySize=auto;html=1;exitX=1;exitY=0.25;exitDx=0;exitDy=0;entryX=0;entryY=0.25;entryDx=0;entryDy=0;" parent="1" source="_BxMAFI9N5B8a2bIf4MY-2" target="_BxMAFI9N5B8a2bIf4MY-5" edge="1">
          <mxGeometry relative="1" as="geometry" />
        </mxCell>
        <mxCell id="SIbv8F3vYf_0f2cenoc4-2" style="edgeStyle=orthogonalEdgeStyle;rounded=0;orthogonalLoop=1;jettySize=auto;html=1;exitX=1;exitY=0.75;exitDx=0;exitDy=0;entryX=0;entryY=0.25;entryDx=0;entryDy=0;" parent="1" source="_BxMAFI9N5B8a2bIf4MY-2" target="_BxMAFI9N5B8a2bIf4MY-7" edge="1">
          <mxGeometry relative="1" as="geometry">
            <Array as="points">
              <mxPoint x="810" y="145" />
              <mxPoint x="810" y="385" />
            </Array>
          </mxGeometry>
        </mxCell>
        <mxCell id="_BxMAFI9N5B8a2bIf4MY-2" value="&lt;div&gt;&lt;font face=&quot;Lucida Console&quot;&gt;&lt;span style=&quot;font-size: 16px;&quot;&gt;读取中国行政区划&lt;/span&gt;&lt;/font&gt;&lt;/div&gt;&lt;font face=&quot;Lucida Console&quot;&gt;&lt;div style=&quot;text-align: left;&quot;&gt;&lt;span style=&quot;font-size: 16px; background-color: initial;&quot;&gt;shp.get_cn_border&lt;/span&gt;&lt;/div&gt;&lt;/font&gt;&lt;div style=&quot;text-align: left;&quot;&gt;&lt;font face=&quot;Lucida Console&quot;&gt;&lt;span style=&quot;font-size: 16px;&quot;&gt;shp.get_cn_province&lt;/span&gt;&lt;/font&gt;&lt;/div&gt;&lt;div style=&quot;text-align: left;&quot;&gt;&lt;font face=&quot;Lucida Console&quot;&gt;&lt;span style=&quot;font-size: 16px;&quot;&gt;shp.get_cn_city&lt;/span&gt;&lt;/font&gt;&lt;/div&gt;" style="rounded=1;whiteSpace=wrap;html=1;" parent="1" vertex="1">
          <mxGeometry x="520" y="70" width="240" height="100" as="geometry" />
        </mxCell>
        <mxCell id="_BxMAFI9N5B8a2bIf4MY-54" style="edgeStyle=orthogonalEdgeStyle;rounded=0;orthogonalLoop=1;jettySize=auto;html=1;exitX=1;exitY=0.5;exitDx=0;exitDy=0;entryX=0;entryY=0.5;entryDx=0;entryDy=0;" parent="1" source="_BxMAFI9N5B8a2bIf4MY-3" target="_BxMAFI9N5B8a2bIf4MY-5" edge="1">
          <mxGeometry relative="1" as="geometry" />
        </mxCell>
        <mxCell id="_BxMAFI9N5B8a2bIf4MY-3" value="&lt;div&gt;&lt;font face=&quot;Lucida Console&quot;&gt;&lt;span style=&quot;font-size: 16px;&quot;&gt;绘制多边形&lt;/span&gt;&lt;/font&gt;&lt;/div&gt;&lt;font face=&quot;Lucida Console&quot;&gt;&lt;span style=&quot;font-size: 16px;&quot;&gt;plot.add_polygons&lt;/span&gt;&lt;/font&gt;" style="rounded=1;whiteSpace=wrap;html=1;" parent="1" vertex="1">
          <mxGeometry x="520" y="230" width="240" height="80" as="geometry" />
        </mxCell>
        <mxCell id="_BxMAFI9N5B8a2bIf4MY-4" value="&lt;div&gt;&lt;font face=&quot;Lucida Console&quot;&gt;&lt;span style=&quot;font-size: 16px;&quot;&gt;坐标变换的类&lt;/span&gt;&lt;/font&gt;&lt;/div&gt;&lt;font face=&quot;Lucida Console&quot;&gt;&lt;span style=&quot;font-size: 16px;&quot;&gt;shp.GeometryTransformer&lt;/span&gt;&lt;/font&gt;" style="rounded=1;whiteSpace=wrap;html=1;" parent="1" vertex="1">
          <mxGeometry x="160" y="240" width="240" height="80" as="geometry" />
        </mxCell>
        <mxCell id="_BxMAFI9N5B8a2bIf4MY-5" value="&lt;div&gt;&lt;font face=&quot;Lucida Console&quot;&gt;&lt;span style=&quot;font-size: 16px;&quot;&gt;绘制中国行政区划&lt;/span&gt;&lt;/font&gt;&lt;/div&gt;&lt;font face=&quot;Lucida Console&quot;&gt;&lt;div style=&quot;text-align: left;&quot;&gt;&lt;span style=&quot;font-size: 16px; background-color: initial;&quot;&gt;plot.add_cn_border&lt;/span&gt;&lt;/div&gt;&lt;/font&gt;&lt;div style=&quot;text-align: left;&quot;&gt;&lt;font face=&quot;Lucida Console&quot;&gt;&lt;span style=&quot;font-size: 16px;&quot;&gt;plot.add_cn_province&lt;/span&gt;&lt;/font&gt;&lt;/div&gt;&lt;div style=&quot;text-align: left;&quot;&gt;&lt;font face=&quot;Lucida Console&quot;&gt;&lt;span style=&quot;font-size: 16px;&quot;&gt;plot.add_cn_city&lt;/span&gt;&lt;/font&gt;&lt;/div&gt;" style="rounded=1;whiteSpace=wrap;html=1;" parent="1" vertex="1">
          <mxGeometry x="920" y="220" width="260" height="100" as="geometry" />
        </mxCell>
        <mxCell id="_BxMAFI9N5B8a2bIf4MY-55" style="edgeStyle=orthogonalEdgeStyle;rounded=0;orthogonalLoop=1;jettySize=auto;html=1;exitX=1;exitY=0.5;exitDx=0;exitDy=0;entryX=0;entryY=0.5;entryDx=0;entryDy=0;" parent="1" source="_BxMAFI9N5B8a2bIf4MY-6" target="_BxMAFI9N5B8a2bIf4MY-7" edge="1">
          <mxGeometry relative="1" as="geometry" />
        </mxCell>
        <mxCell id="_BxMAFI9N5B8a2bIf4MY-6" value="&lt;div&gt;&lt;font face=&quot;Lucida Console&quot;&gt;&lt;span style=&quot;font-size: 16px;&quot;&gt;用多边形做裁剪&lt;/span&gt;&lt;/font&gt;&lt;/div&gt;&lt;font face=&quot;Lucida Console&quot;&gt;&lt;span style=&quot;font-size: 16px;&quot;&gt;plot.clip_by_polygon&lt;/span&gt;&lt;/font&gt;" style="rounded=1;whiteSpace=wrap;html=1;" parent="1" vertex="1">
          <mxGeometry x="520" y="370" width="240" height="80" as="geometry" />
        </mxCell>
        <mxCell id="_BxMAFI9N5B8a2bIf4MY-7" value="&lt;div&gt;&lt;font face=&quot;Lucida Console&quot;&gt;&lt;span style=&quot;font-size: 16px;&quot;&gt;用中国行政区划裁剪&lt;/span&gt;&lt;/font&gt;&lt;/div&gt;&lt;font face=&quot;Lucida Console&quot;&gt;&lt;div style=&quot;text-align: left;&quot;&gt;&lt;span style=&quot;font-size: 16px; background-color: initial;&quot;&gt;plot.clip_by_cn_border&lt;/span&gt;&lt;/div&gt;&lt;/font&gt;&lt;div style=&quot;text-align: left;&quot;&gt;&lt;font face=&quot;Lucida Console&quot;&gt;&lt;span style=&quot;font-size: 16px;&quot;&gt;plot.clip_by_cn_province&lt;/span&gt;&lt;/font&gt;&lt;/div&gt;&lt;div style=&quot;text-align: left;&quot;&gt;&lt;font face=&quot;Lucida Console&quot;&gt;&lt;span style=&quot;font-size: 16px;&quot;&gt;plot_by_cn_city&lt;/span&gt;&lt;/font&gt;&lt;/div&gt;" style="rounded=1;whiteSpace=wrap;html=1;" parent="1" vertex="1">
          <mxGeometry x="920" y="360" width="260" height="100" as="geometry" />
        </mxCell>
        <mxCell id="_BxMAFI9N5B8a2bIf4MY-8" value="&lt;div&gt;&lt;font face=&quot;Lucida Console&quot;&gt;&lt;span style=&quot;font-size: 16px;&quot;&gt;多边形 -&amp;gt; Path&lt;/span&gt;&lt;/font&gt;&lt;/div&gt;&lt;font face=&quot;Lucida Console&quot;&gt;&lt;span style=&quot;font-size: 16px;&quot;&gt;shp.polygon_to_path&lt;/span&gt;&lt;/font&gt;" style="rounded=1;whiteSpace=wrap;html=1;" parent="1" vertex="1">
          <mxGeometry x="160" y="360" width="240" height="80" as="geometry" />
        </mxCell>
        <mxCell id="_BxMAFI9N5B8a2bIf4MY-58" value="&lt;font face=&quot;Lucida Console&quot;&gt;&lt;span style=&quot;font-size: 16px;&quot;&gt;绘图工具&lt;/span&gt;&lt;/font&gt;&lt;div style=&quot;text-align: left;&quot;&gt;&lt;font face=&quot;Lucida Console&quot;&gt;&lt;span style=&quot;font-size: 16px;&quot;&gt;plot.add_compass&lt;/span&gt;&lt;/font&gt;&lt;/div&gt;&lt;div style=&quot;text-align: left;&quot;&gt;&lt;font face=&quot;Lucida Console&quot;&gt;&lt;span style=&quot;font-size: 16px;&quot;&gt;plot.add_scale_bar&lt;/span&gt;&lt;/font&gt;&lt;/div&gt;&lt;div style=&quot;text-align: left;&quot;&gt;&lt;font face=&quot;Lucida Console&quot;&gt;&lt;span style=&quot;font-size: 16px;&quot;&gt;plot.add_quiver_legend&lt;/span&gt;&lt;/font&gt;&lt;/div&gt;&lt;div style=&quot;text-align: left;&quot;&gt;&lt;span style=&quot;font-family: &amp;quot;Lucida Console&amp;quot;; font-size: 16px;&quot;&gt;plot.add_frame&lt;/span&gt;&lt;font face=&quot;Lucida Console&quot;&gt;&lt;span style=&quot;font-size: 16px;&quot;&gt;&lt;br&gt;&lt;/span&gt;&lt;/font&gt;&lt;/div&gt;&lt;div style=&quot;text-align: left;&quot;&gt;&lt;font face=&quot;Lucida Console&quot;&gt;&lt;span style=&quot;font-size: 16px;&quot;&gt;...&lt;/span&gt;&lt;/font&gt;&lt;/div&gt;" style="rounded=1;whiteSpace=wrap;html=1;" parent="1" vertex="1">
          <mxGeometry x="520" y="520" width="240" height="160" as="geometry" />
        </mxCell>
        <mxCell id="_BxMAFI9N5B8a2bIf4MY-60" style="edgeStyle=orthogonalEdgeStyle;rounded=0;orthogonalLoop=1;jettySize=auto;html=1;exitX=1;exitY=0.5;exitDx=0;exitDy=0;entryX=0;entryY=0.5;entryDx=0;entryDy=0;" parent="1" source="_BxMAFI9N5B8a2bIf4MY-59" target="_BxMAFI9N5B8a2bIf4MY-58" edge="1">
          <mxGeometry relative="1" as="geometry" />
        </mxCell>
        <mxCell id="_BxMAFI9N5B8a2bIf4MY-59" value="&lt;font face=&quot;Lucida Console&quot;&gt;&lt;span style=&quot;font-size: 16px;&quot;&gt;工具类&lt;/span&gt;&lt;/font&gt;&lt;div style=&quot;text-align: left;&quot;&gt;&lt;font face=&quot;Lucida Console&quot;&gt;&lt;span style=&quot;font-size: 16px;&quot;&gt;_artist.Compass&lt;/span&gt;&lt;/font&gt;&lt;/div&gt;&lt;div style=&quot;text-align: left;&quot;&gt;&lt;font face=&quot;Lucida Console&quot;&gt;&lt;span style=&quot;font-size: 16px;&quot;&gt;_artist.ScaleBar&lt;/span&gt;&lt;/font&gt;&lt;/div&gt;&lt;div&gt;&lt;div style=&quot;text-align: left;&quot;&gt;&lt;span style=&quot;font-size: 16px; font-family: &amp;quot;Lucida Console&amp;quot;; background-color: initial;&quot;&gt;_artist.QuiverLegend&lt;/span&gt;&lt;/div&gt;&lt;/div&gt;&lt;div style=&quot;text-align: left;&quot;&gt;&lt;span style=&quot;font-family: &amp;quot;Lucida Console&amp;quot;; font-size: 16px;&quot;&gt;_artist.Frame&lt;/span&gt;&lt;span style=&quot;font-size: 16px; font-family: &amp;quot;Lucida Console&amp;quot;; background-color: initial;&quot;&gt;&lt;br&gt;&lt;/span&gt;&lt;/div&gt;" style="rounded=1;whiteSpace=wrap;html=1;" parent="1" vertex="1">
          <mxGeometry x="160" y="540" width="240" height="120" as="geometry" />
        </mxCell>
      </root>
    </mxGraphModel>
  </diagram>
</mxfile>
